HIERARCHY
ROOT Hips
{
    OFFSET 0.000000 0.000000 0.000000
    CHANNELS 6 Xposition Yposition Zposition Zrotation Xrotation Yrotation
    JOINT Spine
    {
        OFFSET -0.000000 0.081015 0.000000
        CHANNELS 3 Zrotation Xrotation Yrotation
        JOINT Spine1
        {
            OFFSET -0.000000 0.240812 0.000000
            CHANNELS 3 Zrotation Xrotation Yrotation
            JOINT Neck
            {
                OFFSET -0.000000 0.239823 0.021802
                CHANNELS 3 Zrotation Xrotation Yrotation
                JOINT Head
                {
                    OFFSET -0.000000 0.148909 -0.021273
                    CHANNELS 3 Zrotation Xrotation Yrotation
                    End Site
                    {
                        OFFSET -0.000000 0.197598 0.000000
                    }
                }
            }
            JOINT LeftShoulder
            {
                OFFSET 0.039829 0.224972 -0.001181
                CHANNELS 3 Zrotation Xrotation Yrotation
                JOINT LeftArm
                {
                    OFFSET 0.107364 0.000000 0.000000
                    CHANNELS 3 Zrotation Xrotation Yrotation
                    JOINT LeftForeArm
                    {
                        OFFSET 0.283104 0.000000 0.000000
                        CHANNELS 3 Zrotation Xrotation Yrotation
                        JOINT LeftHand
                        {
                            OFFSET 0.324767 0.000000 0.000000
                            CHANNELS 3 Zrotation Xrotation Yrotation
                            End Site
                            {
                                OFFSET 0.148198 0.000000 0.000000
                            }
                        }
                    }
                }
            }
            JOINT RightShoulder
            {
                OFFSET -0.039119 0.224972 -0.001181
                CHANNELS 3 Zrotation Xrotation Yrotation
                JOINT RightArm
                {
                    OFFSET -0.107364 0.000000 0.000000
                    CHANNELS 3 Zrotation Xrotation Yrotation
                    JOINT RightForeArm
                    {
                        OFFSET -0.283104 0.000000 0.000000
                        CHANNELS 3 Zrotation Xrotation Yrotation
                        JOINT RightHand
                        {
                            OFFSET -0.324767 0.000000 0.000000
                            CHANNELS 3 Zrotation Xrotation Yrotation
                            End Site
                            {
                                OFFSET -0.148198 0.000000 0.000000
                            }
                        }
                    }
                }
            }
        }
    }
    JOINT LeftUpLeg
    {
        OFFSET 0.098799 0.000000 0.000000
        CHANNELS 3 Zrotation Xrotation Yrotation
        JOINT LeftLeg
        {
            OFFSET -0.000000 -0.332632 0.000000
            CHANNELS 3 Zrotation Xrotation Yrotation
            JOINT LeftFoot
            {
                OFFSET -0.000000 -0.498967 0.000000
                CHANNELS 3 Zrotation Xrotation Yrotation
                JOINT LeftToeBase
                {
                    OFFSET -0.000000 -0.064219 0.148198
                    CHANNELS 3 Zrotation Xrotation Yrotation
                    End Site
                    {
                        OFFSET -0.000000 0.000000 0.039520
                    }
                }
            }
        }
    }
    JOINT RightUpLeg
    {
        OFFSET -0.098799 0.000000 0.000000
        CHANNELS 3 Zrotation Xrotation Yrotation
        JOINT RightLeg
        {
            OFFSET -0.000000 -0.332632 0.000000
            CHANNELS 3 Zrotation Xrotation Yrotation
            JOINT RightFoot
            {
                OFFSET -0.000000 -0.498967 0.000000
                CHANNELS 3 Zrotation Xrotation Yrotation
                JOINT RightToeBase
                {
                    OFFSET -0.000000 -0.064219 0.148198
                    CHANNELS 3 Zrotation Xrotation Yrotation
                    End Site
                    {
                        OFFSET -0.000000 0.000000 0.039520
                    }
                }
            }
        }
    }
}
MOTION
Frames:    12
Frame Time:    0.010000
-0.003605    0.875441    0.026217    -5.378162    -3.825345    -49.645992    -3.711978    -1.388677    0.334672    3.974146    14.446184    -0.363581    -7.078992    33.886284    12.303529    -11.589131    -16.162992    8.330761    -22.396605    26.197100    0.160262    -44.387047    8.166865    -23.401571    65.611374    -48.455093    -53.140007    48.514160    -19.077044    -4.887858    10.448647    29.124697    4.149472    32.171577    29.499084    32.940178    -79.336349    -45.840485    15.928281    -36.055878    -33.804661    -7.319184    1.098703    -5.395664    7.878204    -2.535705    26.486444    -3.212281    12.193148    -15.800578    13.549651    0.000000    0.000000    0.000000    -10.524145    0.730560    -7.132215    4.435828    19.443819    -7.089552    8.155130    -13.605175    -5.422794    0.000000    0.000000    0.000000    
-0.004119    0.875309    0.025444    -5.439893    -3.828553    -49.635017    -3.626989    -1.333478    0.412342    3.988596    14.445722    -0.340523    -7.051724    33.905575    12.349255    -11.645452    -16.228546    8.359733    -22.926453    26.160519    0.549061    -43.791180    7.658276    -23.677893    65.419502    -48.511772    -53.540897    47.960522    -18.896421    -4.798897    10.560993    29.017073    4.048064    32.048138    29.324068    32.814812    -79.868835    -45.584213    15.630766    -36.187153    -33.673946    -7.045627    1.197642    -5.476942    8.040838    -2.415109    26.713585    -2.329299    11.839760    -16.093428    12.432568    0.000000    0.000000    0.000000    -10.427275    0.725914    -7.078931    4.460144    19.464321    -6.812646    8.001545    -13.606817    -5.829266    0.000000    0.000000    0.000000    
-0.004614    0.875188    0.024578    -5.489653    -3.801864    -49.646439    -3.546657    -1.382274    0.539660    4.097177    14.583156    -0.316753    -7.098051    33.878613    12.363346    -11.686463    -16.316004    8.348157    -23.143591    25.706213    0.618034    -43.614742    7.236386    -23.637152    64.971237    -48.617298    -54.122288    47.636776    -18.819252    -4.662061    10.551278    28.774433    3.932395    32.079376    29.139683    32.658241    -80.339432    -45.308914    15.414656    -36.078064    -33.543812    -6.580261    1.339934    -5.615292    8.154653    -2.375009    26.958818    -2.474024    11.812399    -16.111992    12.483311    0.000000    0.000000    0.000000    -10.324927    0.717617    -6.895585    4.537408    19.487728    -6.574408    7.865079    -13.699287    -6.279041    0.000000    0.000000    0.000000    
-0.005200    0.875146    0.023700    -5.561645    -3.770106    -49.660446    -3.399273    -1.353039    0.618546    4.079665    14.571766    -0.289102    -7.116830    33.925266    12.413911    -11.741364    -16.427397    8.367633    -23.023645    25.430893    0.643847    -43.819435    6.654716    -23.657419    64.495201    -48.652241    -54.712219    47.272964    -18.757261    -4.763436    10.445221    28.653940    3.998561    32.263237    28.925627    32.398396    -80.820892    -44.988052    15.217503    -36.080406    -33.310642    -6.225374    1.540256    -5.775751    8.252989    -2.390682    27.251245    -1.933476    11.541862    -16.210999    11.842111    0.000000    0.000000    0.000000    -10.199360    0.720300    -6.670914    4.631723    19.512074    -6.534638    7.767986    -13.744362    -6.588626    0.000000    0.000000    0.000000    
-0.005818    0.875131    0.022829    -5.631846    -3.740033    -49.671474    -3.243840    -1.365339    0.674818    4.025768    14.664229    -0.267534    -7.080776    33.931095    12.435345    -11.852209    -16.591255    8.348377    -22.812344    25.143244    0.544618    -44.103046    6.031745    -23.605289    64.098656    -48.666103    -55.173931    47.160278    -18.798292    -5.034620    10.448566    28.438711    3.987032    32.285934    28.772909    32.193501    -81.214630    -44.714310    15.049870    -36.280773    -33.103138    -5.938522    1.703489    -5.830639    8.333180    -2.375504    27.397301    -2.074877    11.507071    -16.222410    11.916782    0.000000    0.000000    0.000000    -10.083684    0.736381    -6.533000    4.707815    19.523178    -6.535020    7.705233    -13.754668    -6.734149    0.000000    0.000000    0.000000    
-0.006485    0.875158    0.021962    -5.687940    -3.723350    -49.684124    -3.121242    -1.335801    0.743573    3.994776    14.614512    -0.239696    -7.051381    34.058083    12.450090    -11.943371    -16.801846    8.312350    -22.467657    24.967607    0.357864    -44.506863    5.420877    -23.500223    63.696182    -48.695827    -55.663433    47.336483    -18.740816    -5.017570    10.549576    28.494434    3.883808    32.063091    28.531950    32.123058    -81.664696    -44.404938    14.796434    -36.408810    -32.897938    -5.707868    1.828377    -5.690818    8.405787    -2.368051    27.178408    -1.805779    11.365485    -16.280571    11.521394    0.000000    0.000000    0.000000    -9.985701    0.770526    -6.510926    4.755689    19.509958    -6.562415    7.641879    -13.752364    -6.762400    0.000000    0.000000    0.000000    
-0.007104    0.875218    0.021071    -5.705649    -3.716032    -49.713821    -3.052751    -1.335257    0.784401    3.967138    14.631362    -0.223759    -7.016365    34.086849    12.485843    -12.046255    -16.989506    8.305403    -22.166750    24.557423    0.226125    -44.895519    4.997373    -23.203707    63.051517    -48.921921    -56.392700    47.401447    -18.931297    -4.951757    10.585511    28.391472    3.939049    32.040886    28.207251    31.813530    -81.857285    -44.198914    14.838746    -36.583485    -32.641006    -5.484372    1.902593    -5.793142    8.511107    -2.270703    27.347801    -2.952038    11.592445    -16.049582    12.592028    0.000000    0.000000    0.000000    -9.921507    0.769748    -6.623152    4.750099    19.514389    -6.507479    7.601531    -13.737430    -6.701770    0.000000    0.000000    0.000000    
-0.007677    0.875314    0.020140    -5.681390    -3.714459    -49.747826    -3.051297    -1.306554    0.818192    3.999346    14.549123    -0.213634    -7.187465    34.143555    12.619184    -11.913180    -17.251188    8.421371    -21.932497    24.344744    0.211254    -45.186886    4.489959    -23.091782    62.477093    -48.981129    -57.014000    47.497234    -18.926590    -4.887578    10.677698    28.434481    3.887142    31.835705    27.812862    31.637913    -81.988510    -43.952282    14.903905    -36.652309    -32.354340    -5.195908    1.931026    -5.649768    8.596135    -2.216862    27.072697    -2.555058    11.418640    -16.162516    12.073568    0.000000    0.000000    0.000000    -9.882860    0.766950    -6.630325    4.772765    19.456554    -6.664695    7.590599    -13.713708    -6.515880    0.000000    0.000000    0.000000    
-0.008239    0.875450    0.019250    -5.644130    -3.730778    -49.782913    -3.087341    -1.310660    0.803104    4.078432    14.574294    -0.229564    -7.322736    34.023823    12.712295    -11.871788    -17.378479    8.502828    -21.854099    24.314396    0.316022    -45.297859    3.939675    -23.146412    62.211021    -49.041935    -57.348488    47.415688    -18.912058    -4.815604    11.072430    28.672018    3.449217    30.710007    27.748440    32.096588    -82.657875    -43.511196    14.205069    -36.739552    -32.252132    -5.142288    1.929969    -5.641029    8.685021    -2.132153    27.008284    -2.510408    11.294596    -16.135201    11.953221    0.000000    0.000000    0.000000    -9.868392    0.755596    -6.876633    4.703472    19.434086    -6.565158    7.583687    -13.687298    -6.334170    0.000000    0.000000    0.000000    
-0.008780    0.875599    0.018313    -5.581866    -3.735083    -49.793766    -3.146866    -1.379190    0.820381    4.176620    14.624471    -0.237097    -7.353254    34.021217    12.757335    -11.923295    -17.602129    8.507156    -21.677210    24.243078    0.211166    -45.449711    3.462821    -23.066481    62.190304    -49.065750    -57.434406    47.246120    -18.887985    -4.826893    11.400616    28.729294    3.083552    29.851545    27.619617    32.331760    -83.080826    -43.187180    13.705923    -36.655777    -32.199745    -5.081402    1.937469    -5.647113    8.663159    -2.122095    26.912792    -2.407353    11.175931    -16.096956    11.854825    0.000000    0.000000    0.000000    -9.842396    0.724543    -7.209795    4.587676    19.412256    -6.397404    7.602371    -13.669284    -6.142445    0.000000    0.000000    0.000000    
-0.009386    0.875788    0.017359    -5.531011    -3.735641    -49.776279    -3.208743    -1.360027    0.755122    4.253548    14.530663    -0.264793    -7.400216    34.045753    12.843946    -11.948177    -17.831261    8.556894    -21.535770    24.219387    0.243910    -45.561993    3.068208    -22.964893    62.252575    -49.129723    -57.459248    47.063011    -18.947441    -4.937700    11.334424    28.554468    3.082202    29.798435    27.378357    32.116428    -83.053864    -43.221573    13.793969    -36.500587    -32.265141    -4.788757    1.952822    -5.639235    8.560808    -2.131719    26.799736    -2.248360    11.074159    -16.045891    11.751136    0.000000    0.000000    0.000000    -9.787019    0.730553    -7.604989    4.439663    19.360018    -6.106344    7.579611    -13.643438    -6.030008    0.000000    0.000000    0.000000    
-0.009960    0.875990    0.016344    -5.465081    -3.723547    -49.744949    -3.289617    -1.357709    0.684235    4.328252    14.430363    -0.293703    -7.392777    34.045155    12.932655    -11.974428    -18.009743    8.625173    -21.353765    24.149759    0.267290    -45.675465    2.732160    -22.835163    62.348362    -49.173870    -57.487442    46.878849    -18.934504    -5.014893    11.040108    27.902229    3.378615    30.412407    27.173403    31.302166    -82.643089    -43.490982    14.368833    -36.309223    -32.226772    -4.773327    1.971247    -5.658200    8.451435    -2.146959    26.688694    -2.088286    10.968239    -15.982067    11.665063    0.000000    0.000000    0.000000    -9.728527    0.719857    -8.000149    4.303920    19.301126    -5.779720    7.531128    -13.646905    -5.990493    0.000000    0.000000    0.000000    
